# xmcd
#
# Track frame offsets: 
#        150
#        11395
#        25125
#        44543
#        65365
#        80140
#        97041
#        116141
#        143818
#        165856
#        185574
#        207418
#        232176
#
# Disc length: 3341 seconds
#
# Revision: 0
# Processed by: cddbd v1.5.2PL0 Copyright (c) Steve Scherf et al.
# Submitted via: ExactAudioCopy v1.2
#
DISCID=b30d0b0d
DTITLE=久石让 - 天空之城02
DYEAR=2009
DGENRE=Classical
TTITLE0=纯真
TTITLE1=夏日
TTITLE2=叙事曲
TTITLE3=不可能的任务
TTITLE4=初恋
TTITLE5=老友记
TTITLE6=粉红的
TTITLE7=影院怀旧
TTITLE8=风之细语
TTITLE9=东鸽广告曲
TTITLE10=红猪月
TTITLE11=阵雨记
TTITLE12=勇敢的人
EXTD=
EXTT0=
EXTT1=
EXTT2=
EXTT3=
EXTT4=
EXTT5=
EXTT6=
EXTT7=
EXTT8=
EXTT9=
EXTT10=
EXTT11=
EXTT12=
PLAYORDER=
